HIERARCHY
ROOT Hips
{
 OFFSET 0.000000 0.000000 0.000000
 CHANNELS 6 Xposition Yposition Zposition Yrotation Xrotation Zrotation
 JOINT Chest
 {
  OFFSET 0.000000 9.585900 0.002600
  CHANNELS 3 Yrotation Xrotation Zrotation
  JOINT Chest2
  {
   OFFSET 0.000000 9.601200 -0.005300
   CHANNELS 3 Yrotation Xrotation Zrotation
   JOINT Chest3
   {
    OFFSET 0.000000 9.561800 0.000000
    CHANNELS 3 Yrotation Xrotation Zrotation
    JOINT Chest4
    {
     OFFSET 0.000000 9.552100 0.000000
     CHANNELS 3 Yrotation Xrotation Zrotation
     JOINT Neck
     {
      OFFSET 0.000000 14.453000 0.000000
      CHANNELS 3 Yrotation Xrotation Zrotation
      JOINT Head
      {
       OFFSET 0.000000 8.936500 -0.011300
       CHANNELS 3 Yrotation Xrotation Zrotation
       End Site
       {
        OFFSET 0.000000 17.073600 -0.006000
       }
      }
     }
     JOINT RightCollar
     {
      OFFSET -2.921100 9.558500 0.000000
      CHANNELS 3 Yrotation Xrotation Zrotation
      JOINT RightShoulder
      {
       OFFSET -13.519700 0.000000 0.000000
       CHANNELS 3 Yrotation Xrotation Zrotation
       JOINT RightElbow
       {
        OFFSET 0.000000 -29.696600 0.000000
        CHANNELS 3 Yrotation Xrotation Zrotation
        JOINT RightWrist
        {
         OFFSET 0.000000 -24.004700 0.000000
         CHANNELS 3 Yrotation Xrotation Zrotation
         End Site
         {
          OFFSET 0.000000 -17.728500 0.000000
         }
        }
       }
      }
     }
     JOINT LeftCollar
     {
      OFFSET 2.921100 9.558500 0.000000
      CHANNELS 3 Yrotation Xrotation Zrotation
      JOINT LeftShoulder
      {
       OFFSET 13.519700 0.000000 0.000000
       CHANNELS 3 Yrotation Xrotation Zrotation
       JOINT LeftElbow
       {
        OFFSET 0.000000 -29.696600 0.000000
        CHANNELS 3 Yrotation Xrotation Zrotation
        JOINT LeftWrist
        {
         OFFSET 0.000000 -24.004700 0.000000
         CHANNELS 3 Yrotation Xrotation Zrotation
         End Site
         {
          OFFSET 0.000000 -17.728500 0.000000
         }
        }
       }
      }
     }
    }
   }
  }
 }
 JOINT RightHip
 {
  OFFSET -7.771700 -0.012900 -0.001300
  CHANNELS 3 Yrotation Xrotation Zrotation
  JOINT RightKnee
  {
   OFFSET 0.000000 -40.869800 0.001200
   CHANNELS 3 Yrotation Xrotation Zrotation
   JOINT RightAnkle
   {
    OFFSET 0.000000 -39.717900 0.002100
    CHANNELS 3 Yrotation Xrotation Zrotation
    JOINT RightToe
    {
     OFFSET 0.000000 -4.965400 11.033500
     CHANNELS 3 Yrotation Xrotation Zrotation
     End Site
     {
      OFFSET 0.000000 -1.423100 5.872300
     }
    }
   }
  }
 }
 JOINT LeftHip
 {
  OFFSET 7.771700 -0.012900 -0.001300
  CHANNELS 3 Yrotation Xrotation Zrotation
  JOINT LeftKnee
  {
   OFFSET 0.000000 -40.869800 0.001200
   CHANNELS 3 Yrotation Xrotation Zrotation
   JOINT LeftAnkle
   {
    OFFSET 0.000000 -39.717900 0.002100
    CHANNELS 3 Yrotation Xrotation Zrotation
    JOINT LeftToe
    {
     OFFSET 0.000000 -4.965400 11.033500
     CHANNELS 3 Yrotation Xrotation Zrotation
     End Site
     {
      OFFSET 0.000000 -1.423100 5.872300
     }
    }
   }
  }
 }
}
MOTION
Frames: 11
Frame Time: 0.008333
-49.135583 43.945689 24.213304 173.398564 -18.667796 -1.327212 0.873620 16.635456 3.930143 0.021987 1.753732 0.450097 0.092556 2.935554 0.766218 0.655445 14.615434 3.859431 -1.852754 9.472698 -4.417202 -0.999086 -15.684185 -4.379817 9.900267 0.670224 -5.511907 -1.050089 -6.040776 -6.379471 116.631564 -73.776664 -102.012931 2.042698 1.612527 -36.006766 -13.068476 -1.431072 -3.864198 5.247222 -6.337298 1.088877 -164.323851 -82.439511 146.457539 10.103012 14.681840 23.856650 0.658100 -73.182249 12.632764 -144.870348 66.329467 -143.946943 -12.799290 -25.841504 10.600450 0.046005 -0.703124 -0.132197 -5.289707 -61.172634 0.747481 163.940697 60.622928 165.672104 2.025606 -38.860533 -4.303129 0.284492 0.488453 0.018629
-49.128344 43.942040 24.217111 173.343654 -18.672456 -1.287635 0.909821 16.637439 3.902691 0.013844 1.751462 0.447254 0.074773 2.928296 0.756718 0.656953 14.615956 3.840093 -1.833384 9.492324 -4.405342 -1.011114 -15.652039 -4.384526 9.907258 0.638709 -5.518491 -1.045026 -6.030250 -6.385848 116.679572 -73.814181 -102.034996 2.080277 1.585724 -35.979630 -13.066759 -1.423256 -3.843879 5.260963 -6.335247 1.080015 -165.030782 -82.454614 147.129017 10.041269 14.716346 23.931257 0.592525 -73.183562 12.679944 -144.898888 66.335970 -143.987279 -12.753756 -25.827694 10.559929 0.044974 -0.721554 -0.131438 -5.233373 -61.164495 0.725232 163.926192 60.620428 165.662672 2.039586 -38.868524 -4.327945 0.282267 0.487374 0.047659
-49.122262 43.937874 24.219669 173.297979 -18.680163 -1.239553 0.908386 16.639949 3.852253 0.030553 1.754354 0.448598 0.029566 2.911722 0.738748 0.696690 14.628379 3.838103 -1.875753 9.521949 -4.430154 -0.965110 -15.656437 -4.361587 9.904898 0.611449 -5.534579 -1.046241 -6.024425 -6.387149 116.820992 -73.810419 -102.156726 2.103049 1.599841 -35.944413 -13.072999 -1.419599 -3.831033 5.246484 -6.348296 1.070718 -165.230673 -82.471027 147.342706 10.129500 14.709113 24.087743 0.579588 -73.183406 12.685397 -144.921363 66.337224 -144.037387 -12.722253 -25.808175 10.565330 0.036910 -0.741082 -0.150986 -5.191734 -61.154564 0.710480 163.958338 60.620640 165.675851 2.056316 -38.874365 -4.340054 0.276937 0.485599 0.062344
-49.115347 43.933144 24.221818 173.264262 -18.687963 -1.196827 0.902805 16.641792 3.808021 0.030018 1.753310 0.446168 0.026014 2.909723 0.732867 0.721002 14.636400 3.840926 -1.902139 9.531659 -4.444480 -0.947836 -15.646487 -4.354778 9.885390 0.576941 -5.563037 -1.089095 -6.034891 -6.409812 117.034597 -73.765377 -102.335844 2.058992 1.640773 -35.888984 -13.178014 -1.469999 -3.824323 5.257749 -6.355319 1.076079 -165.316749 -82.519139 147.500132 10.175539 14.722887 24.192251 0.540989 -73.183115 12.712995 -144.925280 66.333316 -144.072230 -12.704205 -25.785460 10.572795 0.021383 -0.755374 -0.148443 -5.119495 -61.148664 0.663480 163.976877 60.617883 165.693623 2.071869 -38.876065 -4.344784 0.268676 0.480898 0.063112
-49.103393 43.927864 24.224946 173.213855 -18.691837 -1.177446 0.885177 16.633549 3.774405 0.060833 1.759316 0.448982 0.032470 2.910946 0.733366 0.709217 14.633190 3.818603 -1.898317 9.548936 -4.444194 -0.945052 -15.618825 -4.354867 9.894869 0.550603 -5.576395 -1.107269 -6.019648 -6.404449 117.132938 -73.739866 -102.415350 2.068765 1.637518 -35.859278 -13.172487 -1.465840 -3.807823 5.253764 -6.366023 1.081882 -165.326714 -82.540271 147.535347 10.215339 14.728159 24.237971 0.465122 -73.186073 12.806685 -144.884753 66.323991 -144.032077 -12.691892 -25.768614 10.547722 0.055977 -0.755870 -0.123971 -5.094447 -61.143658 0.691405 164.007581 60.617283 165.716743 2.095818 -38.881099 -4.350822 0.251768 0.481544 0.053861
-49.093104 43.922092 24.228289 173.190322 -18.691166 -1.156739 0.873560 16.627622 3.746230 0.056537 1.757530 0.448098 0.057202 2.917099 0.736807 0.680789 14.622267 3.796709 -1.895023 9.566334 -4.450040 -0.972506 -15.579003 -4.375597 9.875038 0.494376 -5.625310 -1.107228 -5.973961 -6.375147 117.239075 -73.734663 -102.489365 2.059095 1.639890 -35.837228 -13.169841 -1.461604 -3.797178 5.255994 -6.382593 1.093534 -165.600440 -82.562718 147.813299 10.229578 14.754276 24.292107 0.359733 -73.195981 12.904706 -144.850102 66.314595 -144.012370 -12.706525 -25.732310 10.537227 0.062684 -0.770541 -0.107684 -5.067357 -61.143716 0.698017 164.043005 60.620054 165.747445 2.102431 -38.893510 -4.350576 0.244142 0.489065 0.060614
-49.084463 43.916468 24.230691 173.163040 -18.694344 -1.126181 0.878378 16.627892 3.716199 0.022225 1.746645 0.436634 0.079452 2.922337 0.739028 0.652522 14.608864 3.762434 -1.869727 9.594279 -4.439938 -0.971381 -15.561854 -4.378698 9.904667 0.479796 -5.625378 -1.115383 -5.948234 -6.361581 117.311140 -73.701133 -102.567235 2.040909 1.641794 -35.806129 -13.172072 -1.458307 -3.775567 5.286530 -6.394685 1.114288 -166.165690 -82.567656 148.353031 10.217850 14.814015 24.362502 0.259538 -73.202866 12.997782 -144.811769 66.306335 -144.000384 -12.700859 -25.625382 10.511077 0.093082 -0.852315 -0.083018 -5.036662 -61.139742 0.725161 164.092128 60.616319 165.777877 2.012970 -38.955388 -4.315879 0.289697 0.530895 0.098154
-49.072659 43.911221 24.233021 173.139829 -18.699891 -1.119450 0.885134 16.629533 3.709370 0.029569 1.748575 0.437734 0.056739 2.913131 0.730082 0.676263 14.617483 3.765891 -1.892009 9.597900 -4.451623 -0.957214 -15.554122 -4.375579 9.889761 0.447394 -5.656049 -1.134377 -5.919872 -6.350398 117.404723 -73.659877 -102.667358 2.045341 1.636358 -35.791841 -13.216031 -1.487983 -3.768884 5.327081 -6.398387 1.131194 -166.443408 -82.582902 148.624325 10.244705 14.841476 24.408998 0.143668 -73.203669 13.115412 -144.798444 66.305486 -143.997649 -12.712926 -25.585464 10.516002 0.101834 -0.857462 -0.072566 -5.031509 -61.132343 0.766211 164.132989 60.618256 165.812452 2.008373 -38.968899 -4.311974 0.285306 0.538206 0.100743
-49.057954 43.905403 24.238553 173.100877 -18.687587 -1.132732 0.906018 16.608303 3.723591 0.029191 1.747549 0.436066 0.056011 2.911637 0.727166 0.671106 14.615939 3.751982 -1.889977 9.613480 -4.448302 -0.943417 -15.546019 -4.375050 9.907002 0.442635 -5.656305 -1.176407 -5.908588 -6.363490 117.519265 -73.641263 -102.765143 2.051539 1.633620 -35.801721 -13.235399 -1.501626 -3.754005 5.361798 -6.404203 1.150759 -166.607061 -82.609633 148.794815 10.268704 14.842073 24.439156 -0.029056 -73.219689 13.304968 -144.765667 66.315649 -143.946331 -12.739167 -25.561027 10.457971 0.151360 -0.856536 -0.044852 -5.056659 -61.141530 0.855389 164.166482 60.618214 165.840804 2.031744 -38.984842 -4.327587 0.260365 0.549523 0.104491
-49.049185 43.900901 24.240222 173.077175 -18.693969 -1.119730 0.903415 16.608272 3.707734 0.020506 1.743934 0.431328 0.063066 2.913385 0.727583 0.664262 14.615054 3.739786 -1.885739 9.625253 -4.447112 -0.959615 -15.526685 -4.379070 9.910531 0.411291 -5.685219 -1.194280 -5.874641 -6.348837 117.602663 -73.624249 -102.840382 2.055636 1.634098 -35.818117 -13.252981 -1.528629 -3.739973 5.401552 -6.390236 1.164802 -166.748092 -82.625170 148.941289 10.278007 14.846215 24.453519 -0.105066 -73.214951 13.384084 -144.764812 66.318883 -143.954396 -12.734912 -25.555083 10.429880 0.154172 -0.821451 -0.001036 -5.038792 -61.131895 0.885845 164.213927 60.620696 165.873089 2.027826 -38.998745 -4.319183 0.255571 0.555879 0.110163
-49.041443 43.897014 24.241056 173.071640 -18.703809 -1.113423 0.871972 16.606211 3.685301 0.046073 1.755020 0.435883 0.043016 2.905347 0.719823 0.666746 14.620567 3.732327 -1.884423 9.629332 -4.443727 -0.966123 -15.515908 -4.377504 9.912059 0.377827 -5.709789 -1.214124 -5.845427 -6.336352 117.660786 -73.615001 -102.889141 2.091261 1.644214 -35.877552 -13.322287 -1.597245 -3.713830 5.499548 -6.325266 1.162083 -167.041455 -82.571450 149.207784 10.299147 14.898279 24.503733 -0.192482 -73.207255 13.459235 -144.777502 66.320184 -143.974642 -12.741941 -25.541430 10.421046 0.168408 -0.817829 0.007334 -5.041058 -61.118251 0.925774 164.266459 60.626566 165.906611 2.005217 -39.015737 -4.296135 0.259499 0.567114 0.113039
